<svg width="24" height="24" viewBox="0 0 24 24" fill="none" xmlns="http://www.w3.org/2000/svg">
<g clip-path="url(#clip0_21_6010)">
<path fill-rule="evenodd" clip-rule="evenodd" d="M12.1001 11.9234C12.9151 11.2795 13.5094 10.3978 13.8004 9.40068C14.0913 8.40358 14.0646 7.34061 13.7237 6.35942C13.3829 5.37824 12.745 4.52754 11.8986 3.92551C11.0522 3.32348 10.0392 3 9.00055 3C7.96186 3 6.94895 3.32348 6.10253 3.92551C5.2561 4.52754 4.61817 5.37824 4.27736 6.35942C3.93655 7.34061 3.90978 8.40358 4.20075 9.40068C4.49173 10.3978 5.08601 11.2795 5.90105 11.9234C4.57505 12.5474 3.54405 13.5434 2.77405 14.6444C1.50305 16.4644 0.892053 18.6344 0.754053 20.1504L0.654053 21.2414H17.3451L17.2451 20.1514C17.1081 18.6354 16.4971 16.4644 15.2261 14.6444C15.1281 14.5044 15.0261 14.3664 14.9201 14.2294L15.4751 13.1254C16.1781 13.3134 16.5631 13.6034 16.8051 13.9334C17.3721 14.7054 17.8131 15.2754 18.3391 15.6754C18.8991 16.1014 19.4911 16.2864 20.2071 16.4754L20.9911 16.6814L23.8811 10.9314L22.6851 10.6184C21.9941 10.4384 21.7531 10.3264 21.5431 10.1584C21.2861 9.9524 21.0171 9.6164 20.4081 8.7874C19.9211 8.1224 19.2611 7.6224 18.3901 7.3254L18.7031 6.7024L16.9161 5.8044L13.4311 12.7384C13.0178 12.4194 12.5712 12.1462 12.0991 11.9234H12.1001ZM12.0001 7.9994C12.0001 8.79505 11.684 9.55812 11.1214 10.1207C10.5588 10.6833 9.7957 10.9994 9.00005 10.9994C8.2044 10.9994 7.44134 10.6833 6.87873 10.1207C6.31612 9.55812 6.00005 8.79505 6.00005 7.9994C6.00005 7.20375 6.31612 6.44069 6.87873 5.87808C7.44134 5.31547 8.2044 4.9994 9.00005 4.9994C9.7957 4.9994 10.5588 5.31547 11.1214 5.87808C11.684 6.44069 12.0001 7.20375 12.0001 7.9994ZM11.1981 17.1824L12.5111 14.5694C11.6001 13.7654 10.4481 13.2494 9.00005 13.2494C6.91005 13.2494 5.43605 14.3264 4.41405 15.7894C3.65005 16.8834 3.16905 18.1564 2.92405 19.2414H15.0761C14.8661 18.3114 14.4821 17.2414 13.8961 16.2674L12.9851 18.0804L11.1981 17.1824ZM16.4091 11.3224L17.5031 9.1454C18.1671 9.3154 18.5411 9.6224 18.7961 9.9704C19.3561 10.7344 19.7861 11.3144 20.2941 11.7204C20.5271 11.9074 20.7671 12.0504 21.0211 12.1674L19.9471 14.3034C19.8047 14.2491 19.6707 14.1751 19.5491 14.0834C19.2911 13.8874 19.0111 13.5594 18.4171 12.7494C17.9211 12.0744 17.2471 11.6134 16.4091 11.3214V11.3224Z" fill="#BE3DEB"/>
</g>
<defs>
<clipPath id="clip0_21_6010">
<rect width="24" height="24" fill="white"/>
</clipPath>
</defs>
</svg>
